<svg width="39" height="36" viewBox="0 0 39 36" fill="none" xmlns="http://www.w3.org/2000/svg">
<path d="M37.978 1.38318C37.6745 1.12095 37.305 0.946813 36.9096 0.879651C36.5142 0.812489 36.1079 0.854866 35.7349 1.00219L1.85132 14.3136C1.40838 14.4876 1.0337 14.8004 0.783333 15.2051C0.532971 15.6098 0.420394 16.0847 0.462448 16.5587C0.504502 17.0328 0.698925 17.4804 1.01663 17.8347C1.33433 18.1891 1.75822 18.431 2.22487 18.5243L11.4219 20.3638V31.7159C11.4173 32.1527 11.5446 32.5806 11.7873 32.9438C12.03 33.3069 12.3766 33.5884 12.7819 33.7512C13.0534 33.8649 13.3446 33.9238 13.639 33.9246C13.9266 33.9237 14.2112 33.8657 14.4762 33.754C14.7412 33.6422 14.9814 33.4789 15.1828 33.2736L20.4329 28.0235L28.1794 34.8405C28.5785 35.195 29.0937 35.391 29.6276 35.3916C29.8597 35.3913 30.0903 35.3547 30.311 35.2831C30.6751 35.1677 31.0026 34.9587 31.2607 34.6772C31.5189 34.3957 31.6987 34.0514 31.7822 33.6786L38.6879 3.54488C38.778 3.15409 38.7595 2.74607 38.6344 2.36502C38.5093 1.98398 38.2823 1.64444 37.978 1.38318ZM1.92546 16.4289C1.90719 16.2703 1.94296 16.1101 2.02698 15.9743C2.111 15.8385 2.23836 15.735 2.38848 15.6805L33.448 3.4785L11.9859 18.9788L2.5129 17.0842C2.35554 17.057 2.21196 16.9775 2.10536 16.8586C1.99876 16.7397 1.93538 16.5883 1.92546 16.4289ZM14.1442 32.2352C14.0415 32.3379 13.9107 32.4078 13.7682 32.4361C13.6258 32.4645 13.4781 32.45 13.3439 32.3944C13.2098 32.3388 13.0951 32.2447 13.0144 32.1239C12.9337 32.0032 12.8906 31.8612 12.8906 31.7159V21.3862L19.3281 27.0513L14.1442 32.2352ZM37.2562 3.21679L30.3506 33.3505C30.3221 33.4745 30.262 33.589 30.176 33.6828C30.09 33.7765 29.9812 33.8463 29.8601 33.8854C29.739 33.9244 29.6099 33.9314 29.4854 33.9055C29.3608 33.8796 29.2451 33.8218 29.1496 33.7378L13.3322 19.8184L37.1375 2.62576C37.2002 2.70917 37.2433 2.80555 37.2639 2.90782C37.2844 3.01009 37.2818 3.11566 37.2562 3.21679Z" fill="black"/>
</svg>
